<svg xmlns="http://www.w3.org/2000/svg" width="76.514" height="61.969"><path d="M.146 20.741c.018.073.073.109.109.182a2.413 2.413 0 00.219.365l36.452 40.1c.018.036.073.036.091.073a2.263 2.263 0 00.419.31c.055.036.109.055.164.091a2.744 2.744 0 00.674.109 1.572 1.572 0 00.656-.146.739.739 0 00.164-.091 1.392 1.392 0 00.419-.31c.036-.036.073-.036.091-.073l36.452-40.1a1.49 1.49 0 00.219-.365.607.607 0 00.109-.182 1.681 1.681 0 00.128-.656v-.018a.532.532 0 00-.036-.164 1.985 1.985 0 00-.091-.474 1.821 1.821 0 00-.146-.255c-.055-.073-.073-.164-.128-.255L61.532.656c-.018-.018-.055-.036-.073-.055a1.683 1.683 0 00-.4-.31 1.521 1.521 0 00-.219-.146c-.018-.018-.036-.036-.055-.036a1.348 1.348 0 00-.529-.091C60.238.036 60.2 0 60.147 0H16.4c-.055 0-.109.036-.164.036a1.674 1.674 0 00-.51.091c-.018 0-.036.036-.055.036a.916.916 0 00-.219.146 1.684 1.684 0 00-.4.31c-.018.018-.055.036-.073.055L.4 18.9a1.114 1.114 0 00-.128.255 1.822 1.822 0 00-.146.255 1.455 1.455 0 00-.091.474.532.532 0 00-.035.165v.018a1.725 1.725 0 00.146.674zm5.8 1.13h16.472l10.99 30.2zm32.329 32.935L26.3 21.872h23.95zm4.866-2.734l10.99-30.2h16.477zM60.675 5.395l10.262 12.831H55.554zm-3.226-1.75l-5.121 12.832L42.066 3.645zm-8.384 14.581h-21.58l10.79-13.487zM34.484 3.645L24.223 16.477 19.1 3.645zm-18.609 1.75L21 18.226H5.614z" fill="#77ac2b"/></svg>
